<?xml version="1.0" encoding="UTF-8"?>
<svg id="Capa_2" data-name="Capa 2" xmlns="http://www.w3.org/2000/svg" viewBox="0 0 1129.55 1125.01">
  <defs>
    <style>
      .cls-1 {
        fill: #3b1e54;
      }
    </style>
  </defs>
  <g id="Capa_1-2" data-name="Capa 1">
    <g>
      <path class="cls-1" d="M259.29,888.64c-16.57,28.69-6.74,65.39,21.96,81.95l184.24,106.37c.06.03.11.07.17.1l69.12,39.91c18.56,10.72,41.43,10.71,59.99,0l69.12-39.91s.05-.03.07-.05l184.29-106.4c28.69-16.57,38.52-53.25,21.96-81.95l-253.49-439.07c-23.09-39.99-80.81-40-103.91,0l-253.52,439.04Z"/>
      <path class="cls-1" d="M512.8,102.52c23.1-40,80.83-39.99,103.91.01l84.35,146.18,316.51,548.15c30.32,52.5,111.6,32.05,111.96-28.58,0-.56,0-1.12,0-1.68v-450.71c0-21.43-11.43-41.24-30-51.95l-69.12-39.9s0,0,0,0L709.22,38.58c-89.11-51.44-199.8-51.44-288.9,0L99.12,224.03s0,0,0,0l-69.12,39.9c-18.56,10.72-30,30.52-30,51.95v450.71c0,.54,0,1.08,0,1.62.34,60.63,81.65,81.08,111.96,28.57L428.39,248.71l84.42-146.19Z"/>
    </g>
  </g>
</svg>