<?xml version="1.0" encoding="UTF-8"?>
<svg id="Capa_2" data-name="Capa 2" xmlns="http://www.w3.org/2000/svg" viewBox="0 0 1390.02 499.68">
  <defs>
    <style>
      .cls-1 {
        fill: #64748b;
      }

      .cls-2 {
        fill: #3b1e54;
      }
    </style>
  </defs>
  <g id="Capa_1-2" data-name="Capa 1">
    <g>
      <g>
        <path class="cls-1" d="M269.22,362.21l23.6-55.14h3.14l23.34,55.14,9.83,23.21,13.86,32.74h30.71l-57.37-129.54h-43.89l-49.86,111.59c-3.77,8.43,2.4,17.95,11.64,17.95h11.05l14.01-32.74,9.93-23.21Z"/>
        <path class="cls-1" d="M461.77,288.63h-67.91v129.54h67.91c23.51,0,41.39-5.52,53.62-16.57,12.23-11.05,18.35-26.88,18.35-47.49v-1.93c0-20.41-6.12-36.1-18.35-47.08-12.23-10.98-30.11-16.47-53.62-16.47ZM503.03,354.21c0,12.5-3.57,22.28-10.69,29.34-7.13,7.06-17.59,10.59-31.37,10.59h-37.5v-81.49h37.5c13.78,0,24.24,3.48,31.37,10.44,7.13,6.96,10.69,16.69,10.69,29.19v1.92Z"/>
        <polygon class="cls-1" points="618.48 395.46 615.64 395.46 571.85 288.63 540.23 288.63 595.27 418.16 638.95 418.16 693.89 288.63 662.26 288.63 618.48 395.46"/>
        <rect class="cls-1" x="714.26" y="288.63" width="29.7" height="129.54"/>
        <path class="cls-1" d="M873.19,346.05c-8.92-2.53-20.31-4.44-34.16-5.73-10.68-1.01-18.75-2.21-24.23-3.6-5.47-1.38-9.16-3.12-11.05-5.22s-2.84-4.7-2.84-7.81v-.1c0-3.04.94-5.61,2.84-7.7,1.89-2.09,5.2-3.73,9.93-4.92,4.73-1.18,11.29-1.77,19.66-1.77,11.49,0,22.25,1.15,32.28,3.45,10.03,2.3,18.97,5.24,26.81,8.82l-3.35-25.04c-6.49-2.84-14.51-5.37-24.07-7.6-9.56-2.23-21.03-3.35-34.41-3.35-20.2,0-35.29,3.19-45.26,9.58-9.97,6.39-14.95,15.83-14.95,28.33v.51c0,8.72,2.01,15.75,6.03,21.08,4.02,5.34,10.42,9.41,19.21,12.21,8.78,2.8,20.24,4.85,34.36,6.13,10,.88,17.82,1.94,23.47,3.19,5.64,1.25,9.61,2.96,11.91,5.12,2.3,2.16,3.45,5.13,3.45,8.92v.3c0,5.47-2.7,9.48-8.11,12.01-5.41,2.53-14.26,3.8-26.56,3.8s-24.16-1.54-35.17-4.61c-11.01-3.07-20.37-6.43-28.08-10.08l3.14,27.47c4.39,1.76,9.61,3.57,15.66,5.42,6.05,1.86,12.82,3.41,20.32,4.66,7.5,1.25,15.58,1.88,24.23,1.88,21.96,0,38.32-3.33,49.06-9.98,10.75-6.66,16.12-17.01,16.12-31.07v-.71c0-9.39-2.15-16.71-6.44-21.94-4.29-5.24-10.9-9.12-19.81-11.66Z"/>
        <path class="cls-1" d="M994.82,284.78c-24.8,0-43.75,5.92-56.86,17.74-13.11,11.83-19.66,28.52-19.66,50.07v1.62c0,21.56,6.56,38.25,19.66,50.07,13.11,11.82,32.06,17.74,56.86,17.74s43.74-5.91,56.81-17.74c13.07-11.82,19.61-28.51,19.61-50.07v-1.62c0-21.56-6.54-38.25-19.61-50.07-13.08-11.82-32.02-17.74-56.81-17.74ZM1040.33,354.31c0,13.58-3.85,24.23-11.56,31.93-7.7,7.7-19.02,11.55-33.96,11.55s-26.44-3.85-34.11-11.55c-7.67-7.7-11.5-18.35-11.5-31.93v-1.82c0-13.58,3.83-24.23,11.5-31.93,7.67-7.7,19.04-11.56,34.11-11.56s26.25,3.85,33.96,11.56c7.7,7.7,11.56,18.35,11.56,31.93v1.82Z"/>
        <path class="cls-1" d="M1221.71,373.82c-2.54-5.17-6.25-9.16-11.15-11.96-3.09-1.77-6.97-3.09-11.61-3.95v-.96c10.34-1.08,18.01-4.16,23.01-9.22s7.5-12.13,7.5-21.18v-1.22c0-11.76-4.12-20.81-12.37-27.16-8.25-6.35-21.25-9.53-39.02-9.53h-79.97v129.54h29.09v-44.16l42.47.17c6.55,0,11.69.86,15.41,2.59s6.5,4.39,8.36,8.01c1.86,3.62,3.29,8.26,4.31,13.94l3.65,19.46h31.52l-5.07-24.94c-1.56-7.77-3.6-14.24-6.13-19.41ZM1174.43,351.87l-47.23.09v-40.22h47.54c8.78,0,15.12,1.69,19,5.07,3.89,3.38,5.83,8.08,5.83,14.09v1.01c0,6.08-1.99,10.92-5.98,14.49-3.99,3.58-10.37,5.41-19.16,5.47Z"/>
        <polygon class="cls-1" points="1390.02 288.63 1357.28 288.63 1327.99 333.53 1315.32 352.89 1313.69 352.89 1300.92 333.33 1271.83 288.63 1239.09 288.63 1299.71 379.16 1299.71 418.16 1329.4 418.16 1329.4 379.3 1390.02 288.63"/>
        <path class="cls-2" d="M203.52,416.61c-22.86-6.27-45.9-9.23-45.9-25.5,0-6.99,4.53-17.68,28.58-17.68,13.53,0,24.36,4.28,31.54,11.61l3.02-6.71c2.19-4.87-.03-10.58-4.95-12.66-6.88-2.91-17.79-7.04-34.76-7.04-3.07,0-5.96.17-8.75.44v-32.31q0-18.92,23.65-18.92v-15.42h-58.4l-39.89,101.98-39.89-101.98H0v15.42q23.44,0,23.44,18.92v67.65q0,18.92-23.44,18.92v15.42h62.3v-15.42c-21.18,0-21.18-.82-21.18-18.92v-78.96l44,113.71h18.09l44.21-113.71v51.61c-9.03,6.13-13.87,15.38-13.87,27.15,0,34.77,33.22,39.41,59.4,45.85,17.02,4.19,31.07,9.15,31.07,23.64,0,10.28-7.2,21.38-33.1,21.38-24.47,0-43.8-15.01-43.8-41.95h-15.21v53.87h16.45c0-20.56,12.13,2.67,48.52,2.67s51.41-16.86,51.41-39.07c0-28.45-22.3-37.83-44.78-44Z"/>
      </g>
      <g>
        <path class="cls-2" d="M636.18,171.14c-3.19,5.53-1.3,12.59,4.23,15.78l35.48,20.48s.02.01.03.02l13.31,7.69c3.57,2.06,7.98,2.06,11.55,0l13.31-7.68s0,0,.01,0l35.49-20.49c5.53-3.19,7.42-10.26,4.23-15.78l-48.82-84.56c-4.45-7.7-15.56-7.7-20.01,0l-48.82,84.55Z"/>
        <path class="cls-2" d="M685,19.74c4.45-7.7,15.57-7.7,20.01,0l16.24,28.15,60.95,105.56c5.84,10.11,21.49,6.17,21.56-5.5,0-.11,0-.22,0-.32V60.83c0-4.13-2.2-7.94-5.78-10.01l-13.31-7.68s0,0,0,0l-61.86-35.71c-17.16-9.91-38.48-9.91-55.64,0l-61.86,35.71s0,0,0,0l-13.31,7.68c-3.57,2.06-5.78,5.88-5.78,10.01v86.8c0,.1,0,.21,0,.31.07,11.68,15.72,15.62,21.56,5.5l60.94-105.55,16.26-28.15Z"/>
      </g>
    </g>
  </g>
</svg>